<svg xmlns="http://www.w3.org/2000/svg" width="1200" height="800" viewBox="0 0 1200 800">
    <defs><linearGradient id="g" x1="0" y1="0" x2="1" y2="1"><stop stop-color="#f8f5ef"/><stop offset="1" stop-color="#e6e1d7"/></linearGradient></defs>
    <rect width="1200" height="800" fill="url(#g)"/><rect x="70" y="95" width="1060" height="610" rx="24" fill="#e6e1d7"/><rect x="115" y="145" width="460" height="390" rx="10" fill="#bbb4a7" opacity=".44"/><rect x="620" y="180" width="435" height="300" rx="10" fill="#ffffff" opacity=".72"/><rect x="660" y="220" width="355" height="220" rx="6" fill="#2d302f" opacity=".14"/><rect x="160" y="535" width="850" height="54" rx="27" fill="#2d302f" opacity=".68"/><circle cx="265" cy="288" r="82" fill="#ffffff" opacity=".6"/><rect x="820" y="500" width="120" height="150" rx="14" fill="#bbb4a7" opacity=".75"/><path d="M840 505 C840 430 905 420 900 500 C910 430 975 450 930 520" stroke="#2d302f" stroke-width="10" fill="none" opacity=".6"/><path d="M90 650 L490 300 L790 650 Z" fill="#bbb4a7" opacity=".20"/><rect x="720" y="110" width="300" height="35" rx="18" fill="#2d302f" opacity=".45"/>
    <text x="80" y="752" font-family="Arial,Helvetica,sans-serif" font-size="34" fill="#2d302f">Monolith Villa</text>
    <text x="1080" y="752" text-anchor="end" font-family="Arial,Helvetica,sans-serif" font-size="18" fill="#2d302f" opacity=".72">StudioForma</text>
    </svg>